<mxfile host="app.diagrams.net" agent="Mozilla/5.0 (Macintosh; Intel Mac OS X 10_15_7) AppleWebKit/537.36 (KHTML, like Gecko) Chrome/132.0.0.0 Safari/537.36" version="26.0.11">
  <diagram name="Page-1" id="MQQcjvZv5cE2sof3SCF4">
    <mxGraphModel grid="1" page="1" gridSize="10" guides="1" tooltips="1" connect="1" arrows="1" fold="1" pageScale="1" pageWidth="1390" pageHeight="980" math="0" shadow="0">
      <root>
        <mxCell id="0" />
        <mxCell id="1" parent="0" />
        <mxCell id="9AwS29KQ0c3zYdUm4TuR-4" value="" style="html=1;whiteSpace=wrap;" vertex="1" parent="1">
          <mxGeometry x="520" y="70" width="350" height="580" as="geometry" />
        </mxCell>
        <mxCell id="9AwS29KQ0c3zYdUm4TuR-5" value="Create Delivery Order" style="ellipse;whiteSpace=wrap;html=1;" vertex="1" parent="1">
          <mxGeometry x="660" y="140" width="140" height="70" as="geometry" />
        </mxCell>
        <mxCell id="9AwS29KQ0c3zYdUm4TuR-6" value="Manage Delivery Details" style="ellipse;whiteSpace=wrap;html=1;" vertex="1" parent="1">
          <mxGeometry x="530" y="230" width="140" height="70" as="geometry" />
        </mxCell>
        <mxCell id="9AwS29KQ0c3zYdUm4TuR-7" value="Generate Delivery Note" style="ellipse;whiteSpace=wrap;html=1;" vertex="1" parent="1">
          <mxGeometry x="710" y="280" width="140" height="70" as="geometry" />
        </mxCell>
        <mxCell id="9AwS29KQ0c3zYdUm4TuR-8" value="Track Delivery Status" style="ellipse;whiteSpace=wrap;html=1;" vertex="1" parent="1">
          <mxGeometry x="545" y="470" width="140" height="70" as="geometry" />
        </mxCell>
        <mxCell id="9AwS29KQ0c3zYdUm4TuR-9" value="Manage Payments" style="ellipse;whiteSpace=wrap;html=1;" vertex="1" parent="1">
          <mxGeometry x="690" y="560" width="140" height="70" as="geometry" />
        </mxCell>
        <mxCell id="9AwS29KQ0c3zYdUm4TuR-10" value="&lt;b&gt;Customer&lt;/b&gt;" style="shape=umlActor;verticalLabelPosition=bottom;verticalAlign=top;html=1;" vertex="1" parent="1">
          <mxGeometry x="330" y="220" width="70" height="150" as="geometry" />
        </mxCell>
        <mxCell id="9AwS29KQ0c3zYdUm4TuR-14" value="&lt;b&gt;Delivery Staff&lt;/b&gt;" style="shape=umlActor;verticalLabelPosition=bottom;verticalAlign=top;html=1;" vertex="1" parent="1">
          <mxGeometry x="990" y="140" width="70" height="150" as="geometry" />
        </mxCell>
        <mxCell id="9AwS29KQ0c3zYdUm4TuR-17" value="&lt;b&gt;System&lt;/b&gt;" style="shape=umlActor;verticalLabelPosition=bottom;verticalAlign=top;html=1;" vertex="1" parent="1">
          <mxGeometry x="990" y="370" width="70" height="150" as="geometry" />
        </mxCell>
        <mxCell id="9AwS29KQ0c3zYdUm4TuR-20" value="" style="endArrow=none;html=1;rounded=0;exitX=1;exitY=0.3333333333333333;exitDx=0;exitDy=0;exitPerimeter=0;entryX=0;entryY=0.5;entryDx=0;entryDy=0;" edge="1" parent="1" source="9AwS29KQ0c3zYdUm4TuR-10" target="9AwS29KQ0c3zYdUm4TuR-5">
          <mxGeometry width="50" height="50" relative="1" as="geometry">
            <mxPoint x="430" y="240" as="sourcePoint" />
            <mxPoint x="480" y="190" as="targetPoint" />
          </mxGeometry>
        </mxCell>
        <mxCell id="9AwS29KQ0c3zYdUm4TuR-21" value="" style="endArrow=none;html=1;rounded=0;entryX=0;entryY=0.5;entryDx=0;entryDy=0;exitX=1;exitY=0.3333333333333333;exitDx=0;exitDy=0;exitPerimeter=0;" edge="1" parent="1" source="9AwS29KQ0c3zYdUm4TuR-10" target="9AwS29KQ0c3zYdUm4TuR-6">
          <mxGeometry width="50" height="50" relative="1" as="geometry">
            <mxPoint x="470" y="310" as="sourcePoint" />
            <mxPoint x="520" y="260" as="targetPoint" />
          </mxGeometry>
        </mxCell>
        <mxCell id="9AwS29KQ0c3zYdUm4TuR-23" value="" style="endArrow=none;html=1;rounded=0;entryX=0;entryY=0.5;entryDx=0;entryDy=0;exitX=1;exitY=0.3333333333333333;exitDx=0;exitDy=0;exitPerimeter=0;" edge="1" parent="1" source="9AwS29KQ0c3zYdUm4TuR-10" target="9AwS29KQ0c3zYdUm4TuR-8">
          <mxGeometry width="50" height="50" relative="1" as="geometry">
            <mxPoint x="490" y="380" as="sourcePoint" />
            <mxPoint x="540" y="330" as="targetPoint" />
          </mxGeometry>
        </mxCell>
        <mxCell id="9AwS29KQ0c3zYdUm4TuR-24" value="" style="endArrow=none;html=1;rounded=0;entryX=0;entryY=0.3333333333333333;entryDx=0;entryDy=0;entryPerimeter=0;exitX=1;exitY=0.5;exitDx=0;exitDy=0;" edge="1" parent="1" source="9AwS29KQ0c3zYdUm4TuR-6" target="9AwS29KQ0c3zYdUm4TuR-14">
          <mxGeometry width="50" height="50" relative="1" as="geometry">
            <mxPoint x="870" y="170" as="sourcePoint" />
            <mxPoint x="920" y="120" as="targetPoint" />
          </mxGeometry>
        </mxCell>
        <mxCell id="9AwS29KQ0c3zYdUm4TuR-25" value="" style="endArrow=none;html=1;rounded=0;entryX=0;entryY=0.3333333333333333;entryDx=0;entryDy=0;entryPerimeter=0;exitX=1;exitY=0.5;exitDx=0;exitDy=0;" edge="1" parent="1" source="9AwS29KQ0c3zYdUm4TuR-8" target="9AwS29KQ0c3zYdUm4TuR-14">
          <mxGeometry width="50" height="50" relative="1" as="geometry">
            <mxPoint x="830" y="320" as="sourcePoint" />
            <mxPoint x="880" y="270" as="targetPoint" />
          </mxGeometry>
        </mxCell>
        <mxCell id="9AwS29KQ0c3zYdUm4TuR-26" value="" style="endArrow=none;html=1;rounded=0;entryX=0;entryY=0.3333333333333333;entryDx=0;entryDy=0;entryPerimeter=0;exitX=1;exitY=0.5;exitDx=0;exitDy=0;" edge="1" parent="1" source="9AwS29KQ0c3zYdUm4TuR-9" target="9AwS29KQ0c3zYdUm4TuR-17">
          <mxGeometry width="50" height="50" relative="1" as="geometry">
            <mxPoint x="850" y="510" as="sourcePoint" />
            <mxPoint x="900" y="460" as="targetPoint" />
          </mxGeometry>
        </mxCell>
        <mxCell id="9AwS29KQ0c3zYdUm4TuR-27" value="" style="endArrow=none;html=1;rounded=0;entryX=0;entryY=0.3333333333333333;entryDx=0;entryDy=0;entryPerimeter=0;exitX=1;exitY=0.5;exitDx=0;exitDy=0;" edge="1" parent="1" source="9AwS29KQ0c3zYdUm4TuR-7" target="9AwS29KQ0c3zYdUm4TuR-17">
          <mxGeometry width="50" height="50" relative="1" as="geometry">
            <mxPoint x="830" y="430" as="sourcePoint" />
            <mxPoint x="880" y="380" as="targetPoint" />
          </mxGeometry>
        </mxCell>
        <mxCell id="9AwS29KQ0c3zYdUm4TuR-28" value="&lt;font style=&quot;font-size: 18px;&quot;&gt;Delivery Management System&lt;/font&gt;" style="text;strokeColor=none;fillColor=none;html=1;fontSize=24;fontStyle=1;verticalAlign=middle;align=center;" vertex="1" parent="1">
          <mxGeometry x="645" y="70" width="100" height="40" as="geometry" />
        </mxCell>
        <mxCell id="9AwS29KQ0c3zYdUm4TuR-29" value="&lt;b&gt;includes&lt;/b&gt;" style="endArrow=open;endSize=12;dashed=1;html=1;rounded=0;exitX=0.5;exitY=1;exitDx=0;exitDy=0;entryX=0.5;entryY=0;entryDx=0;entryDy=0;" edge="1" parent="1" source="9AwS29KQ0c3zYdUm4TuR-7" target="9AwS29KQ0c3zYdUm4TuR-8">
          <mxGeometry width="160" relative="1" as="geometry">
            <mxPoint x="610" y="490" as="sourcePoint" />
            <mxPoint x="770" y="490" as="targetPoint" />
          </mxGeometry>
        </mxCell>
        <mxCell id="9AwS29KQ0c3zYdUm4TuR-30" value="&lt;b&gt;extends&lt;/b&gt;" style="endArrow=open;endSize=12;dashed=1;html=1;rounded=0;exitX=0.5;exitY=0;exitDx=0;exitDy=0;entryX=0;entryY=1;entryDx=0;entryDy=0;" edge="1" parent="1" source="9AwS29KQ0c3zYdUm4TuR-9" target="9AwS29KQ0c3zYdUm4TuR-5">
          <mxGeometry x="-0.0025" width="160" relative="1" as="geometry">
            <mxPoint x="800" y="380" as="sourcePoint" />
            <mxPoint x="625" y="480" as="targetPoint" />
            <mxPoint as="offset" />
          </mxGeometry>
        </mxCell>
      </root>
    </mxGraphModel>
  </diagram>
</mxfile>
